<?xml version="1.0" encoding="utf-8"?>
<!-- Generator: Adobe Illustrator 15.1.0, SVG Export Plug-In . SVG Version: 6.00 Build 0)  -->
<!DOCTYPE svg PUBLIC "-//W3C//DTD SVG 1.1//EN" "http://www.w3.org/Graphics/SVG/1.1/DTD/svg11.dtd">
<svg version="1.1" id="Calque_1" xmlns="http://www.w3.org/2000/svg" xmlns:xlink="http://www.w3.org/1999/xlink" x="0px" y="0px"
	 width="708.661px" height="154.323px" viewBox="0 0 708.661 154.323" enable-background="new 0 0 708.661 154.323"
	 xml:space="preserve">
<g>
	<g>
		<g>
			<path fill="#EE3124" d="M252.15,144.225c0,0.437-0.155,0.849-0.461,1.232c-0.31,0.385-0.771,0.578-1.387,0.578h-10.333
				c-0.518,0-0.958-0.186-1.321-0.558c-0.361-0.372-0.542-0.802-0.542-1.289v-23.132c0-0.613,0.194-1.074,0.582-1.385
				c0.389-0.307,0.816-0.461,1.281-0.461c0.467,0,0.887,0.154,1.263,0.461c0.376,0.309,0.563,0.771,0.563,1.385v21.319h8.507
				c0.616,0,1.078,0.192,1.387,0.579C251.995,143.34,252.15,143.764,252.15,144.225z"/>
			<path fill="#EE3124" d="M258.52,124.167c-0.167,0.719-0.386,1.338-0.654,1.864c-0.271,0.525-0.584,0.94-0.943,1.247
				c-0.361,0.309-0.745,0.461-1.155,0.461c-0.49,0-0.918-0.146-1.291-0.441s-0.558-0.697-0.558-1.21
				c0-0.333,0.113-0.703,0.346-1.113c0.153-0.257,0.282-0.475,0.384-0.653c0.104-0.18,0.193-0.365,0.271-0.559
				c0.077-0.191,0.128-0.422,0.153-0.689c0.027-0.271,0.04-0.609,0.04-1.02v-1.074c0-0.588,0.206-1.031,0.616-1.326
				s0.833-0.441,1.272-0.441c0.435,0,0.839,0.154,1.213,0.461c0.371,0.307,0.558,0.756,0.558,1.344v0.845
				C258.771,122.681,258.688,123.449,258.52,124.167z"/>
			<path fill="#EE3124" d="M275.008,145.775c-0.384,0.295-0.807,0.442-1.269,0.442c-0.461,0-0.884-0.147-1.268-0.442
				s-0.577-0.749-0.577-1.364v-10.842c0-0.898-0.282-1.565-0.845-2c-0.563-0.438-1.191-0.654-1.883-0.654h-0.115
				c-0.896,0-1.595,0.275-2.094,0.828c-0.499,0.55-0.749,1.236-0.749,2.057v10.611c0,0.615-0.193,1.069-0.577,1.364
				c-0.383,0.295-0.807,0.442-1.268,0.442c-0.461,0-0.884-0.147-1.268-0.442s-0.577-0.751-0.577-1.364v-23.354
				c0-0.613,0.193-1.076,0.577-1.385c0.384-0.307,0.807-0.461,1.268-0.461c0.461,0,0.885,0.154,1.268,0.461
				c0.384,0.311,0.577,0.771,0.577,1.387v7.198c0.408-0.359,0.888-0.616,1.44-0.771c0.55-0.153,0.968-0.23,1.248-0.23h0.461
				c0.922,0,1.762,0.167,2.518,0.499c0.756,0.334,1.41,0.79,1.96,1.367c0.55,0.576,0.979,1.243,1.287,1.999
				c0.306,0.757,0.461,1.571,0.461,2.442v10.848C275.584,145.024,275.391,145.48,275.008,145.775z"/>
			<path fill="#EE3124" d="M292.204,145.775c-0.384,0.295-0.807,0.442-1.269,0.442c-0.359,0-0.699-0.059-1.019-0.174
				c-0.319-0.113-0.595-0.379-0.826-0.789c-0.541,0.514-1.021,0.803-1.446,0.866c-0.423,0.064-0.841,0.097-1.253,0.097h-0.346
				c-0.951,0-1.813-0.16-2.583-0.48c-0.771-0.32-1.438-0.764-2.004-1.326c-0.565-0.565-1.001-1.232-1.31-2
				c-0.308-0.771-0.463-1.604-0.463-2.501v-10.808c0-0.616,0.193-1.078,0.577-1.385s0.807-0.462,1.268-0.462
				c0.435,0,0.853,0.155,1.25,0.462s0.595,0.769,0.595,1.383v10.799c0,0.742,0.257,1.377,0.771,1.9
				c0.516,0.525,1.147,0.789,1.894,0.789h0.348c0.747,0,1.383-0.264,1.911-0.789c0.527-0.523,0.792-1.158,0.792-1.9V129.1
				c0-0.614,0.193-1.076,0.577-1.383s0.807-0.462,1.268-0.462c0.461,0,0.885,0.155,1.269,0.462c0.383,0.307,0.576,0.769,0.576,1.385
				v15.309C292.78,145.024,292.587,145.48,292.204,145.775z"/>
			<path fill="#EE3124" d="M319.556,145.775c-0.397,0.295-0.826,0.442-1.287,0.442c-0.437,0-0.847-0.147-1.23-0.442
				c-0.386-0.295-0.577-0.749-0.577-1.364v-10.805c0-0.742-0.271-1.377-0.807-1.902c-0.539-0.526-1.18-0.789-1.924-0.789h-0.344
				c-0.745,0-1.386,0.263-1.924,0.789c-0.539,0.525-0.807,1.16-0.807,1.902v10.727c0,0.641-0.198,1.115-0.595,1.424
				c-0.397,0.306-0.813,0.461-1.25,0.461c-0.461,0-0.884-0.155-1.268-0.461c-0.386-0.309-0.577-0.783-0.577-1.424v-10.727
				c0-0.742-0.27-1.377-0.807-1.902c-0.539-0.526-1.179-0.789-1.924-0.789h-0.344c-0.745,0-1.385,0.263-1.924,0.789
				c-0.539,0.525-0.807,1.16-0.807,1.902v10.805c0,0.615-0.193,1.069-0.577,1.364c-0.386,0.295-0.807,0.442-1.269,0.442
				c-0.437,0-0.852-0.147-1.249-0.442s-0.596-0.751-0.596-1.364v-15.309c0-0.616,0.191-1.078,0.577-1.385
				c0.384-0.307,0.807-0.462,1.268-0.462c0.437,0,0.794,0.064,1.076,0.192c0.282,0.129,0.539,0.397,0.77,0.81
				c0.281-0.308,0.678-0.552,1.192-0.731c0.51-0.18,1.024-0.271,1.537-0.271h0.346c1,0,1.863,0.167,2.595,0.501
				c0.731,0.332,1.391,0.795,1.981,1.385c0.588-0.59,1.274-1.053,2.057-1.385c0.781-0.334,1.62-0.501,2.518-0.501h0.346
				c2.18,0,3.793,0.558,4.845,1.673c1.051,1.115,1.576,2.635,1.576,4.557v10.926C320.151,145.024,319.953,145.48,319.556,145.775z"
				/>
			<path fill="#EE3124" d="M339.098,144.448c0,0.438-0.147,0.84-0.442,1.212s-0.726,0.558-1.289,0.558
				c-0.643,0-1.215-0.147-1.714-0.442c-0.503-0.295-0.894-0.608-1.176-0.943c-1.13,0.925-2.429,1.386-3.894,1.386h-0.346
				c-0.798,0-1.575-0.109-2.333-0.327s-1.433-0.563-2.022-1.038c-0.592-0.475-1.066-1.069-1.427-1.787
				c-0.359-0.719-0.539-1.576-0.539-2.576v-0.191c0-1.359,0.334-2.41,1.004-3.152c0.669-0.745,1.472-1.316,2.412-1.713
				c0.938-0.396,1.909-0.673,2.911-0.826c1.004-0.152,1.853-0.309,2.548-0.461c0.23-0.051,0.373-0.153,0.423-0.309
				c0.051-0.152,0.078-0.295,0.078-0.423c0-0.768-0.244-1.376-0.731-1.826c-0.488-0.448-1.077-0.673-1.771-0.673h-0.271
				c-0.563,0-1.058,0.109-1.482,0.327c-0.423,0.22-0.763,0.61-1.021,1.174c-0.153,0.386-0.384,0.669-0.692,0.847
				c-0.308,0.182-0.616,0.27-0.924,0.27c-0.487,0-0.93-0.172-1.329-0.52c-0.397-0.346-0.597-0.776-0.597-1.289
				c0-0.308,0.053-0.578,0.155-0.809c0.308-0.693,0.692-1.277,1.155-1.752c0.463-0.475,0.956-0.854,1.481-1.137
				c0.527-0.283,1.072-0.481,1.637-0.597c0.565-0.115,1.104-0.174,1.616-0.174h0.271c0.769,0,1.527,0.134,2.27,0.405
				c0.745,0.268,1.404,0.653,1.981,1.152c0.576,0.5,1.043,1.109,1.402,1.828c0.359,0.718,0.539,1.525,0.539,2.422v8.5
				c0,0.282,0.032,0.508,0.097,0.674c0.064,0.166,0.236,0.289,0.52,0.365c0.512,0.128,0.892,0.365,1.136,0.712
				C338.977,143.66,339.098,144.038,339.098,144.448z M333.292,137.487c-0.671,0.18-1.355,0.319-2.051,0.422
				c-0.697,0.102-1.323,0.243-1.879,0.421c-0.554,0.18-1.005,0.421-1.353,0.729c-0.35,0.309-0.524,0.754-0.524,1.342
				c0,0.641,0.238,1.164,0.717,1.572c0.476,0.41,1.155,0.615,2.032,0.615h0.35c0.747,0,1.385-0.262,1.915-0.787
				c0.529-0.523,0.794-1.156,0.794-1.898V137.487z"/>
			<path fill="#EE3124" d="M355.196,145.775c-0.386,0.295-0.807,0.442-1.268,0.442c-0.437,0-0.853-0.147-1.25-0.442
				s-0.596-0.749-0.596-1.364v-10.805c0-0.742-0.257-1.377-0.773-1.902c-0.514-0.526-1.146-0.789-1.892-0.789h-0.348
				c-0.747,0-1.383,0.263-1.911,0.789c-0.529,0.525-0.792,1.16-0.792,1.902v10.805c0,0.615-0.193,1.069-0.577,1.364
				c-0.386,0.295-0.807,0.442-1.268,0.442c-0.461,0-0.885-0.147-1.269-0.442c-0.386-0.295-0.577-0.751-0.577-1.364v-15.309
				c0-0.616,0.191-1.078,0.577-1.385c0.384-0.307,0.807-0.462,1.269-0.462c0.359,0,0.697,0.064,1.019,0.192
				c0.319,0.129,0.595,0.397,0.826,0.81c0.539-0.515,1.021-0.81,1.446-0.887c0.423-0.077,0.841-0.115,1.251-0.115h0.348
				c0.951,0,1.818,0.167,2.603,0.499c0.783,0.334,1.452,0.783,2.003,1.348c0.552,0.563,0.983,1.23,1.291,2s0.463,1.603,0.463,2.5
				v10.809C355.773,145.024,355.58,145.48,355.196,145.775z"/>
			<path fill="#EE3124" d="M363.772,145.775c-0.397,0.295-0.815,0.442-1.25,0.442c-0.461,0-0.885-0.147-1.269-0.442
				c-0.383-0.295-0.576-0.751-0.576-1.364v-15.309c0-0.616,0.193-1.078,0.576-1.385c0.384-0.307,0.807-0.462,1.269-0.462
				c0.435,0,0.853,0.155,1.25,0.462c0.396,0.307,0.595,0.769,0.595,1.385v15.309C364.367,145.024,364.168,145.48,363.772,145.775z
				 M363.789,123.214c-0.385,0.308-0.809,0.463-1.27,0.463c-0.463,0-0.881-0.155-1.251-0.463c-0.374-0.308-0.559-0.757-0.559-1.346
				v-0.81c0-0.615,0.185-1.076,0.559-1.387c0.371-0.307,0.789-0.461,1.251-0.461c0.461,0,0.885,0.154,1.27,0.461
				c0.386,0.311,0.579,0.771,0.579,1.387v0.81C364.367,122.458,364.174,122.907,363.789,123.214z"/>
			<path fill="#EE3124" d="M377.993,144.312c0,0.463-0.153,0.881-0.461,1.255c-0.309,0.375-0.77,0.56-1.386,0.56
				c-0.718,0-1.397-0.134-2.038-0.405c-0.641-0.268-1.197-0.641-1.672-1.114c-0.475-0.477-0.848-1.034-1.117-1.675
				c-0.269-0.643-0.402-1.323-0.402-2.041v-9.855H370.3c-0.616,0-1.078-0.193-1.386-0.578c-0.308-0.384-0.461-0.809-0.461-1.271
				c0-0.437,0.153-0.847,0.461-1.232c0.308-0.386,0.77-0.578,1.386-0.578h0.617v-6.317c0-0.615,0.19-1.076,0.576-1.387
				c0.383-0.307,0.793-0.461,1.23-0.461c0.461,0,0.891,0.154,1.287,0.461c0.396,0.311,0.596,0.771,0.596,1.387v6.317h1.352
				c0.617,0,1.08,0.192,1.391,0.578c0.309,0.386,0.463,0.796,0.463,1.232c0,0.462-0.154,0.887-0.463,1.271
				c-0.311,0.385-0.773,0.578-1.391,0.578h-1.352v9.846c0,0.309,0.141,0.654,0.423,1.039s0.653,0.577,1.117,0.577
				c0.614,0,1.077,0.192,1.384,0.578C377.84,143.463,377.993,143.874,377.993,144.312z"/>
			<path fill="#EE3124" d="M393.978,138.069c-0.361,0.373-0.797,0.558-1.312,0.558h-7.555v1.384c0,0.744,0.263,1.361,0.788,1.848
				c0.527,0.486,1.162,0.73,1.907,0.73h0.308c0.668,0,1.155-0.143,1.463-0.424c0.309-0.283,0.571-0.586,0.789-0.907
				c0.219-0.321,0.443-0.624,0.674-0.907c0.23-0.281,0.604-0.424,1.115-0.424c0.488,0,0.93,0.148,1.329,0.445
				c0.399,0.295,0.597,0.701,0.597,1.215c0,0.18-0.063,0.463-0.191,0.849c-0.617,1.234-1.381,2.175-2.291,2.817
				c-0.912,0.644-2.074,0.965-3.484,0.965h-0.308c-0.874,0-1.701-0.155-2.481-0.461c-0.783-0.309-1.463-0.745-2.039-1.309
				c-0.577-0.563-1.031-1.225-1.365-1.98c-0.333-0.756-0.499-1.57-0.499-2.441v-6.541c0-0.869,0.172-1.684,0.52-2.441
				c0.349-0.756,0.81-1.416,1.388-1.98c0.576-0.564,1.251-1.006,2.021-1.328c0.771-0.318,1.593-0.479,2.466-0.479h0.307
				c0.9,0,1.735,0.161,2.504,0.479c0.77,0.322,1.445,0.757,2.023,1.307c0.576,0.551,1.033,1.217,1.366,1.998
				s0.501,1.633,0.501,2.555v3.188C394.517,137.27,394.337,137.698,393.978,138.069z M392.87,121.125
				c0,0.309-0.083,0.604-0.25,0.885c-0.168,0.283-0.43,0.514-0.789,0.693l-6.198,2.926c-0.257,0.129-0.538,0.193-0.847,0.193
				c-0.514,0-0.938-0.193-1.271-0.578c-0.333-0.386-0.5-0.82-0.5-1.309c0-0.31,0.084-0.61,0.25-0.904
				c0.166-0.295,0.442-0.533,0.828-0.713l6.16-2.926c0.256-0.121,0.538-0.182,0.846-0.182c0.513,0,0.938,0.196,1.271,0.592
				C392.704,120.198,392.87,120.638,392.87,121.125z M390.827,133.598c0-0.791-0.271-1.436-0.811-1.936
				c-0.541-0.498-1.146-0.748-1.814-0.748h-0.348c-0.747,0-1.392,0.242-1.932,0.73c-0.541,0.482-0.812,1.098-0.812,1.838v1.727
				h5.716V133.598z"/>
			<path fill="#EE3124" d="M423.02,142.411c-0.335,0.768-0.79,1.435-1.368,2c-0.578,0.563-1.254,1.006-2.024,1.326
				s-1.606,0.48-2.505,0.48h-0.27c-0.309,0-0.739-0.072-1.291-0.212c-0.555-0.142-1.034-0.394-1.446-0.754v7.218
				c0,0.617-0.192,1.082-0.577,1.39c-0.383,0.308-0.807,0.464-1.268,0.464s-0.885-0.156-1.268-0.462
				c-0.385-0.31-0.577-0.771-0.577-1.388v-23.369c0-0.59,0.192-1.047,0.577-1.367c0.383-0.32,0.807-0.481,1.268-0.481
				c0.537,0,0.949,0.091,1.229,0.271c0.283,0.18,0.488,0.424,0.616,0.731c0.412-0.437,0.892-0.713,1.446-0.828
				c0.552-0.115,0.982-0.174,1.291-0.174h0.27c0.898,0,1.734,0.167,2.505,0.499c0.771,0.334,1.446,0.79,2.024,1.367
				c0.578,0.576,1.033,1.248,1.368,2.018s0.501,1.59,0.501,2.463v6.308C423.521,140.807,423.354,141.639,423.02,142.411z
				 M419.831,133.602c0-0.74-0.265-1.375-0.792-1.9c-0.527-0.524-1.165-0.787-1.911-0.787h-0.311c-0.746,0-1.383,0.275-1.91,0.826
				c-0.527,0.55-0.792,1.17-0.792,1.861v6.299c0,0.742,0.265,1.375,0.792,1.9c0.527,0.523,1.164,0.787,1.91,0.787h0.311
				c0.746,0,1.384-0.264,1.911-0.787c0.527-0.525,0.792-1.158,0.792-1.9V133.602z"/>
			<path fill="#EE3124" d="M442.414,144.448c0,0.438-0.147,0.84-0.442,1.212s-0.726,0.558-1.289,0.558
				c-0.643,0-1.213-0.147-1.716-0.442c-0.499-0.295-0.892-0.608-1.174-0.943c-1.132,0.925-2.429,1.386-3.894,1.386h-0.346
				c-0.798,0-1.574-0.109-2.333-0.327c-0.758-0.218-1.433-0.563-2.022-1.038c-0.592-0.475-1.066-1.069-1.425-1.787
				c-0.361-0.719-0.54-1.576-0.54-2.576v-0.191c0-1.359,0.334-2.41,1.003-3.152c0.667-0.745,1.473-1.316,2.41-1.713
				c0.938-0.396,1.911-0.673,2.915-0.826c1.001-0.152,1.85-0.309,2.545-0.461c0.23-0.051,0.373-0.153,0.424-0.309
				c0.051-0.152,0.078-0.295,0.078-0.423c0-0.768-0.244-1.376-0.732-1.826c-0.487-0.448-1.079-0.673-1.771-0.673h-0.268
				c-0.566,0-1.061,0.109-1.484,0.327c-0.423,0.22-0.764,0.61-1.018,1.174c-0.156,0.386-0.387,0.669-0.694,0.847
				c-0.308,0.182-0.616,0.27-0.925,0.27c-0.487,0-0.93-0.172-1.328-0.52c-0.396-0.346-0.596-0.776-0.596-1.289
				c0-0.308,0.049-0.578,0.153-0.809c0.308-0.693,0.694-1.277,1.155-1.752s0.956-0.854,1.481-1.137
				c0.525-0.283,1.071-0.481,1.637-0.597c0.563-0.115,1.104-0.174,1.618-0.174h0.268c0.77,0,1.527,0.134,2.271,0.405
				c0.744,0.268,1.404,0.653,1.98,1.152c0.576,0.5,1.045,1.109,1.402,1.828c0.359,0.718,0.539,1.525,0.539,2.422v8.5
				c0,0.282,0.031,0.508,0.096,0.674s0.236,0.289,0.52,0.365c0.513,0.128,0.893,0.365,1.137,0.712
				C442.294,143.66,442.414,144.038,442.414,144.448z M436.608,137.487c-0.672,0.18-1.355,0.319-2.053,0.422
				c-0.696,0.102-1.322,0.243-1.877,0.421c-0.555,0.18-1.006,0.421-1.355,0.729c-0.348,0.309-0.521,0.754-0.521,1.342
				c0,0.641,0.238,1.164,0.716,1.572c0.477,0.41,1.155,0.615,2.032,0.615h0.348c0.748,0,1.387-0.262,1.916-0.787
				c0.529-0.523,0.795-1.156,0.795-1.898V137.487z"/>
			<path fill="#EE3124" d="M458.757,140.489c0,1.102-0.22,2.018-0.654,2.75c-0.439,0.729-0.982,1.311-1.637,1.748
				c-0.656,0.437-1.375,0.75-2.158,0.943c-0.783,0.19-1.533,0.287-2.254,0.287h-0.654c-1.232,0-2.419-0.34-3.563-1.02
				c-1.142-0.678-2.01-1.646-2.599-2.9c-0.129-0.307-0.192-0.588-0.192-0.846c0-0.512,0.192-0.936,0.578-1.268
				c0.385-0.333,0.822-0.5,1.31-0.5c0.463,0,0.835,0.154,1.117,0.459c0.283,0.305,0.567,0.639,0.849,0.994
				c0.283,0.356,0.61,0.688,0.982,0.994c0.373,0.304,0.881,0.457,1.523,0.457h0.656c1.077,0,1.849-0.199,2.312-0.596
				s0.694-0.903,0.694-1.518c0-0.512-0.115-0.922-0.349-1.23c-0.23-0.307-0.521-0.551-0.867-0.73
				c-0.349-0.179-0.739-0.307-1.178-0.383c-0.437-0.078-0.849-0.155-1.234-0.23c-0.669-0.129-1.356-0.303-2.065-0.52
				c-0.707-0.218-1.357-0.513-1.947-0.883c-0.594-0.373-1.075-0.84-1.447-1.402c-0.375-0.564-0.561-1.256-0.561-2.076v-0.654
				c0-0.948,0.23-1.748,0.692-2.4c0.462-0.653,1.024-1.18,1.69-1.576s1.385-0.684,2.154-0.865c0.771-0.178,1.463-0.269,2.079-0.269
				h0.155c0.846,0,1.635,0.11,2.365,0.327c0.732,0.217,1.367,0.491,1.906,0.824c0.539,0.332,0.956,0.691,1.251,1.075
				s0.442,0.741,0.442,1.073c0,0.438-0.166,0.826-0.499,1.172c-0.335,0.346-0.758,0.518-1.271,0.518
				c-0.359,0-0.669-0.069-0.924-0.207c-0.258-0.141-0.527-0.293-0.809-0.457c-0.282-0.165-0.611-0.318-0.981-0.456
				c-0.374-0.14-0.868-0.21-1.481-0.21h-0.155c-0.847,0-1.546,0.155-2.099,0.461c-0.551,0.309-0.828,0.681-0.828,1.115v0.386
				c0,0.462,0.238,0.8,0.715,1.017c0.477,0.22,1.074,0.418,1.794,0.598s1.491,0.365,2.315,0.558c0.824,0.19,1.596,0.493,2.315,0.903
				s1.317,0.968,1.794,1.673S458.757,139.284,458.757,140.489z"/>
			<path fill="#EE3124" d="M475.392,140.489c0,1.102-0.218,2.018-0.656,2.75c-0.435,0.729-0.98,1.311-1.637,1.748
				c-0.654,0.437-1.373,0.75-2.154,0.943c-0.785,0.19-1.535,0.287-2.254,0.287h-0.656c-1.231,0-2.418-0.34-3.563-1.02
				c-1.141-0.678-2.007-1.646-2.599-2.9c-0.128-0.307-0.192-0.588-0.192-0.846c0-0.512,0.192-0.936,0.578-1.268
				c0.385-0.333,0.822-0.5,1.31-0.5c0.464,0,0.835,0.154,1.119,0.459c0.282,0.305,0.565,0.639,0.847,0.994
				c0.283,0.356,0.611,0.688,0.982,0.994c0.373,0.304,0.881,0.457,1.523,0.457h0.654c1.082,0,1.851-0.199,2.314-0.596
				c0.461-0.396,0.693-0.903,0.693-1.518c0-0.512-0.115-0.922-0.348-1.23c-0.23-0.307-0.521-0.551-0.868-0.73
				c-0.348-0.179-0.741-0.307-1.177-0.383c-0.438-0.078-0.85-0.155-1.234-0.23c-0.67-0.129-1.357-0.303-2.064-0.52
				c-0.709-0.218-1.357-0.513-1.951-0.883c-0.59-0.373-1.073-0.84-1.445-1.402c-0.373-0.564-0.56-1.256-0.56-2.076v-0.654
				c0-0.948,0.23-1.748,0.692-2.4c0.461-0.653,1.023-1.18,1.691-1.576c0.665-0.396,1.383-0.684,2.152-0.865
				c0.77-0.178,1.463-0.269,2.079-0.269h0.153c0.847,0,1.637,0.11,2.368,0.327s1.366,0.491,1.905,0.824
				c0.539,0.332,0.957,0.691,1.252,1.075c0.294,0.384,0.443,0.741,0.443,1.073c0,0.438-0.168,0.826-0.501,1.172
				c-0.335,0.346-0.758,0.518-1.272,0.518c-0.358,0-0.664-0.069-0.922-0.207c-0.257-0.141-0.527-0.293-0.809-0.457
				c-0.283-0.165-0.609-0.318-0.982-0.456c-0.371-0.14-0.866-0.21-1.482-0.21h-0.153c-0.847,0-1.546,0.155-2.099,0.461
				c-0.551,0.309-0.827,0.681-0.827,1.115v0.386c0,0.462,0.238,0.8,0.714,1.017c0.475,0.22,1.074,0.418,1.795,0.598
				c0.719,0.18,1.492,0.365,2.314,0.558c0.822,0.19,1.596,0.493,2.316,0.903c0.719,0.41,1.316,0.968,1.793,1.673
				S475.392,139.284,475.392,140.489z"/>
			<path fill="#EE3124" d="M491.517,138.069c-0.359,0.373-0.797,0.558-1.311,0.558h-7.555v1.384c0,0.744,0.263,1.361,0.79,1.848
				c0.525,0.486,1.161,0.73,1.905,0.73h0.309c0.666,0,1.154-0.143,1.463-0.424c0.308-0.283,0.57-0.586,0.787-0.907
				c0.22-0.321,0.443-0.624,0.676-0.907c0.23-0.281,0.603-0.424,1.117-0.424c0.486,0,0.93,0.148,1.326,0.445
				c0.396,0.295,0.598,0.701,0.598,1.215c0,0.18-0.064,0.463-0.193,0.849c-0.615,1.234-1.379,2.175-2.291,2.817
				c-0.91,0.644-2.071,0.965-3.482,0.965h-0.309c-0.873,0-1.701-0.155-2.484-0.461c-0.781-0.309-1.461-0.745-2.037-1.309
				c-0.576-0.563-1.031-1.225-1.365-1.98c-0.332-0.756-0.498-1.57-0.498-2.441v-6.541c0-0.869,0.174-1.684,0.52-2.441
				c0.346-0.756,0.809-1.416,1.386-1.98c0.578-0.564,1.253-1.006,2.022-1.328c0.771-0.318,1.592-0.479,2.465-0.479h0.31
				c0.897,0,1.731,0.161,2.503,0.479c0.771,0.322,1.443,0.757,2.021,1.307c0.577,0.551,1.033,1.217,1.367,1.998
				s0.501,1.633,0.501,2.555v3.188C492.057,137.27,491.877,137.698,491.517,138.069z M488.367,133.598
				c0-0.791-0.271-1.436-0.812-1.936c-0.54-0.498-1.146-0.748-1.816-0.748h-0.346c-0.746,0-1.391,0.242-1.932,0.73
				c-0.541,0.482-0.811,1.098-0.811,1.838v1.727h5.716V133.598z"/>
			<path fill="#EE3124" d="M520.56,142.411c-0.334,0.768-0.79,1.435-1.369,2c-0.578,0.563-1.252,1.006-2.023,1.326
				s-1.605,0.48-2.504,0.48h-0.271c-0.308,0-0.738-0.072-1.291-0.212c-0.553-0.142-1.035-0.394-1.445-0.754v7.218
				c0,0.617-0.193,1.082-0.576,1.39c-0.386,0.308-0.808,0.464-1.269,0.464c-0.462,0-0.885-0.156-1.269-0.462
				c-0.385-0.31-0.576-0.771-0.576-1.388v-23.369c0-0.59,0.191-1.047,0.576-1.367c0.384-0.32,0.807-0.481,1.269-0.481
				c0.538,0,0.946,0.091,1.23,0.271c0.28,0.18,0.485,0.424,0.614,0.731c0.41-0.437,0.893-0.713,1.445-0.828s0.983-0.174,1.291-0.174
				h0.271c0.898,0,1.732,0.167,2.504,0.499c0.771,0.334,1.445,0.79,2.023,1.367c0.579,0.576,1.035,1.248,1.369,2.018
				c0.332,0.77,0.501,1.59,0.501,2.463v6.308C521.061,140.807,520.892,141.639,520.56,142.411z M517.371,133.602
				c0-0.74-0.265-1.375-0.792-1.9c-0.527-0.524-1.164-0.787-1.911-0.787h-0.31c-0.747,0-1.384,0.275-1.911,0.826
				c-0.529,0.55-0.792,1.17-0.792,1.861v6.299c0,0.742,0.263,1.375,0.792,1.9c0.527,0.523,1.164,0.787,1.911,0.787h0.31
				c0.747,0,1.384-0.264,1.911-0.787c0.527-0.525,0.792-1.158,0.792-1.9V133.602z"/>
			<path fill="#EE3124" d="M539.954,144.448c0,0.438-0.147,0.84-0.441,1.212c-0.295,0.372-0.727,0.558-1.289,0.558
				c-0.644,0-1.217-0.147-1.715-0.442c-0.503-0.295-0.895-0.608-1.176-0.943c-1.131,0.925-2.43,1.386-3.895,1.386h-0.346
				c-0.797,0-1.574-0.109-2.332-0.327s-1.433-0.563-2.022-1.038c-0.591-0.475-1.065-1.069-1.427-1.787
				c-0.359-0.719-0.539-1.576-0.539-2.576v-0.191c0-1.359,0.335-2.41,1.004-3.152c0.669-0.745,1.473-1.316,2.412-1.713
				c0.938-0.396,1.908-0.673,2.91-0.826c1.004-0.152,1.853-0.309,2.549-0.461c0.23-0.051,0.371-0.153,0.423-0.309
				c0.051-0.152,0.077-0.295,0.077-0.423c0-0.768-0.244-1.376-0.73-1.826c-0.488-0.448-1.078-0.673-1.771-0.673h-0.271
				c-0.563,0-1.059,0.109-1.481,0.327c-0.424,0.22-0.764,0.61-1.021,1.174c-0.152,0.386-0.383,0.669-0.691,0.847
				c-0.309,0.182-0.616,0.27-0.924,0.27c-0.488,0-0.93-0.172-1.329-0.52c-0.397-0.346-0.597-0.776-0.597-1.289
				c0-0.308,0.053-0.578,0.154-0.809c0.309-0.693,0.691-1.277,1.154-1.752s0.957-0.854,1.482-1.137
				c0.527-0.283,1.072-0.481,1.637-0.597c0.565-0.115,1.104-0.174,1.616-0.174h0.271c0.77,0,1.527,0.134,2.27,0.405
				c0.745,0.268,1.404,0.653,1.98,1.152c0.577,0.5,1.044,1.109,1.402,1.828c0.359,0.718,0.539,1.525,0.539,2.422v8.5
				c0,0.282,0.033,0.508,0.097,0.674c0.064,0.166,0.236,0.289,0.521,0.365c0.512,0.128,0.892,0.365,1.135,0.712
				C539.833,143.66,539.954,144.038,539.954,144.448z M534.147,137.487c-0.671,0.18-1.355,0.319-2.051,0.422
				c-0.697,0.102-1.322,0.243-1.879,0.421c-0.553,0.18-1.006,0.421-1.354,0.729c-0.35,0.309-0.523,0.754-0.523,1.342
				c0,0.641,0.238,1.164,0.717,1.572c0.477,0.41,1.154,0.615,2.031,0.615h0.35c0.748,0,1.387-0.262,1.916-0.787
				c0.529-0.523,0.793-1.156,0.793-1.898V137.487z"/>
			<path fill="#EE3124" d="M553.733,130.725c0,0.515-0.219,0.906-0.656,1.176c-0.435,0.271-0.871,0.404-1.308,0.404
				c-0.412,0-0.694-0.071-0.847-0.211c-0.155-0.145-0.283-0.303-0.386-0.484c-0.103-0.18-0.249-0.34-0.442-0.483
				c-0.193-0.14-0.547-0.212-1.059-0.212c-0.541,0-1.002,0.121-1.387,0.365s-0.577,0.699-0.577,1.366v11.687
				c0,0.641-0.198,1.115-0.595,1.424c-0.397,0.306-0.826,0.461-1.287,0.461c-0.462,0-0.879-0.155-1.25-0.461
				c-0.372-0.309-0.558-0.783-0.558-1.424v-15.23c0-0.616,0.186-1.078,0.558-1.385c0.371-0.307,0.801-0.462,1.287-0.462
				c0.947,0,1.563,0.257,1.845,0.771c0.206-0.283,0.501-0.481,0.887-0.597c0.384-0.115,0.718-0.174,1-0.174
				c0.769,0,1.431,0.097,1.982,0.289s1.013,0.431,1.386,0.713c0.372,0.283,0.662,0.604,0.867,0.964
				c0.205,0.361,0.359,0.707,0.461,1.041C553.706,130.52,553.733,130.674,553.733,130.725z"/>
			<path fill="#EE3124" d="M575.427,144.315c0,0.541-0.174,0.979-0.52,1.311c-0.346,0.334-0.789,0.501-1.328,0.501
				c-1.691,0-2.986-0.45-3.883-1.348c-0.898-0.897-1.346-2.194-1.346-3.888v-19.832c0-0.538,0.174-0.982,0.518-1.328
				c0.348-0.346,0.787-0.52,1.326-0.52c0.512,0,0.949,0.174,1.307,0.52c0.359,0.346,0.539,0.777,0.539,1.291v19.869
				c0,0.434,0.146,0.814,0.441,1.134c0.295,0.321,0.662,0.481,1.096,0.481c0.516,0,0.951,0.168,1.311,0.502
				C575.247,143.34,575.427,143.779,575.427,144.315z"/>
			<path fill="#EE3124" d="M582.14,124.167c-0.168,0.719-0.385,1.338-0.656,1.864c-0.27,0.525-0.584,0.94-0.943,1.247
				c-0.357,0.309-0.744,0.461-1.156,0.461c-0.486,0-0.916-0.146-1.289-0.441c-0.371-0.295-0.559-0.697-0.559-1.21
				c0-0.333,0.117-0.703,0.348-1.113c0.152-0.257,0.281-0.475,0.385-0.653c0.102-0.18,0.191-0.365,0.27-0.559
				c0.076-0.191,0.127-0.422,0.154-0.689c0.025-0.271,0.037-0.609,0.037-1.02v-1.074c0-0.588,0.205-1.031,0.617-1.326
				s0.836-0.441,1.27-0.441c0.439,0,0.844,0.154,1.213,0.461c0.375,0.307,0.561,0.756,0.561,1.344v0.845
				C582.39,122.681,582.306,123.449,582.14,124.167z"/>
			<path fill="#EE3124" d="M599.989,144.448c0,0.438-0.148,0.84-0.443,1.212s-0.725,0.558-1.289,0.558
				c-0.643,0-1.215-0.147-1.715-0.442c-0.502-0.295-0.893-0.608-1.176-0.943c-1.129,0.925-2.428,1.386-3.893,1.386h-0.346
				c-0.799,0-1.574-0.109-2.332-0.327s-1.434-0.563-2.023-1.038c-0.592-0.475-1.066-1.069-1.428-1.787
				c-0.357-0.719-0.537-1.576-0.537-2.576v-0.191c0-1.359,0.334-2.41,1.004-3.152c0.668-0.745,1.471-1.316,2.41-1.713
				c0.938-0.396,1.91-0.673,2.912-0.826c1.004-0.152,1.852-0.309,2.547-0.461c0.23-0.051,0.373-0.153,0.424-0.309
				c0.051-0.152,0.078-0.295,0.078-0.423c0-0.768-0.244-1.376-0.732-1.826c-0.488-0.448-1.076-0.673-1.771-0.673h-0.27
				c-0.563,0-1.059,0.109-1.482,0.327c-0.422,0.22-0.764,0.61-1.02,1.174c-0.154,0.386-0.385,0.669-0.691,0.847
				c-0.309,0.182-0.617,0.27-0.926,0.27c-0.486,0-0.93-0.172-1.328-0.52c-0.396-0.346-0.598-0.776-0.598-1.289
				c0-0.308,0.053-0.578,0.156-0.809c0.307-0.693,0.691-1.277,1.154-1.752s0.955-0.854,1.482-1.137
				c0.527-0.283,1.07-0.481,1.637-0.597c0.564-0.115,1.104-0.174,1.615-0.174h0.27c0.77,0,1.527,0.134,2.271,0.405
				c0.744,0.268,1.404,0.653,1.98,1.152c0.576,0.5,1.043,1.109,1.402,1.828c0.359,0.718,0.539,1.525,0.539,2.422v8.5
				c0,0.282,0.031,0.508,0.096,0.674s0.236,0.289,0.52,0.365c0.512,0.128,0.893,0.365,1.137,0.712
				C599.868,143.66,599.989,144.038,599.989,144.448z M594.183,137.487c-0.672,0.18-1.355,0.319-2.051,0.422
				c-0.697,0.102-1.324,0.243-1.879,0.421c-0.555,0.18-1.006,0.421-1.354,0.729c-0.35,0.309-0.523,0.754-0.523,1.342
				c0,0.641,0.238,1.164,0.717,1.572c0.475,0.41,1.154,0.615,2.031,0.615h0.35c0.746,0,1.385-0.262,1.914-0.787
				c0.529-0.523,0.795-1.156,0.795-1.898V137.487z"/>
			<path fill="#EE3124" d="M615.784,145.775c-0.385,0.295-0.807,0.442-1.268,0.442c-0.359,0-0.697-0.059-1.02-0.174
				c-0.32-0.113-0.596-0.379-0.826-0.789c-0.539,0.514-1.021,0.803-1.445,0.866c-0.424,0.064-0.842,0.097-1.252,0.097h-0.348
				c-0.951,0-1.813-0.16-2.582-0.48c-0.771-0.32-1.439-0.764-2.006-1.326c-0.564-0.565-1-1.232-1.309-2
				c-0.311-0.771-0.463-1.604-0.463-2.501v-10.808c0-0.616,0.189-1.078,0.576-1.385c0.383-0.307,0.807-0.462,1.268-0.462
				c0.438,0,0.854,0.155,1.25,0.462s0.596,0.769,0.596,1.383v10.799c0,0.742,0.256,1.377,0.773,1.9
				c0.514,0.525,1.145,0.789,1.891,0.789h0.348c0.748,0,1.385-0.264,1.912-0.789c0.527-0.523,0.791-1.158,0.791-1.9V129.1
				c0-0.614,0.191-1.076,0.576-1.383s0.809-0.462,1.27-0.462s0.883,0.155,1.268,0.462c0.383,0.307,0.576,0.769,0.576,1.385v15.309
				C616.36,145.024,616.167,145.48,615.784,145.775z"/>
			<path fill="#EE3124" d="M629.487,144.312c0,0.463-0.154,0.881-0.461,1.255c-0.309,0.375-0.77,0.56-1.385,0.56
				c-0.719,0-1.396-0.134-2.039-0.405c-0.641-0.268-1.197-0.641-1.672-1.114c-0.475-0.477-0.848-1.034-1.115-1.675
				c-0.27-0.643-0.404-1.323-0.404-2.041v-9.855h-0.617c-0.615,0-1.076-0.193-1.385-0.578c-0.309-0.384-0.463-0.809-0.463-1.271
				c0-0.437,0.154-0.847,0.463-1.232s0.77-0.578,1.385-0.578h0.617v-6.317c0-0.615,0.193-1.076,0.576-1.387
				c0.385-0.307,0.795-0.461,1.23-0.461c0.461,0,0.891,0.154,1.287,0.461c0.396,0.311,0.596,0.771,0.596,1.387v6.317h1.352
				c0.617,0,1.08,0.192,1.391,0.578c0.309,0.386,0.463,0.796,0.463,1.232c0,0.462-0.154,0.887-0.463,1.271
				c-0.311,0.385-0.773,0.578-1.391,0.578h-1.352v9.846c0,0.309,0.141,0.654,0.424,1.039c0.281,0.385,0.654,0.577,1.115,0.577
				c0.615,0,1.076,0.192,1.387,0.578C629.333,143.463,629.487,143.874,629.487,144.312z"/>
			<path fill="#EE3124" d="M643.417,130.725c0,0.515-0.219,0.906-0.652,1.176c-0.439,0.271-0.873,0.404-1.311,0.404
				c-0.41,0-0.693-0.071-0.848-0.211c-0.154-0.145-0.281-0.303-0.385-0.484c-0.102-0.18-0.25-0.34-0.441-0.483
				c-0.193-0.14-0.547-0.212-1.059-0.212c-0.539,0-1.002,0.121-1.387,0.365s-0.578,0.699-0.578,1.366v11.687
				c0,0.641-0.197,1.115-0.596,1.424c-0.396,0.306-0.826,0.461-1.287,0.461s-0.879-0.155-1.248-0.461
				c-0.373-0.309-0.559-0.783-0.559-1.424v-15.23c0-0.616,0.186-1.078,0.559-1.385c0.369-0.307,0.799-0.462,1.287-0.462
				c0.947,0,1.563,0.257,1.844,0.771c0.205-0.283,0.502-0.481,0.885-0.597c0.385-0.115,0.719-0.174,1.002-0.174
				c0.77,0,1.432,0.097,1.982,0.289c0.553,0.192,1.014,0.431,1.385,0.713c0.373,0.283,0.662,0.604,0.867,0.964
				c0.205,0.361,0.359,0.707,0.463,1.041C643.392,130.52,643.417,130.674,643.417,130.725z"/>
			<path fill="#EE3124" d="M658.759,138.069c-0.361,0.373-0.799,0.558-1.313,0.558h-7.555v1.384c0,0.744,0.262,1.361,0.789,1.848
				s1.162,0.73,1.906,0.73h0.309c0.666,0,1.154-0.143,1.463-0.424c0.309-0.283,0.57-0.586,0.787-0.907
				c0.221-0.321,0.445-0.624,0.676-0.907c0.23-0.281,0.604-0.424,1.115-0.424c0.486,0,0.93,0.148,1.328,0.445
				c0.398,0.295,0.598,0.701,0.598,1.215c0,0.18-0.064,0.463-0.193,0.849c-0.615,1.234-1.379,2.175-2.291,2.817
				c-0.91,0.644-2.072,0.965-3.482,0.965h-0.309c-0.873,0-1.701-0.155-2.482-0.461c-0.781-0.309-1.463-0.745-2.039-1.309
				c-0.576-0.563-1.029-1.225-1.365-1.98c-0.332-0.756-0.498-1.57-0.498-2.441v-6.541c0-0.869,0.172-1.684,0.52-2.441
				c0.348-0.756,0.809-1.416,1.387-1.98s1.252-1.006,2.021-1.328c0.771-0.318,1.594-0.479,2.467-0.479h0.307
				c0.898,0,1.734,0.161,2.504,0.479c0.77,0.322,1.443,0.757,2.021,1.307c0.578,0.551,1.035,1.217,1.367,1.998s0.5,1.633,0.5,2.555
				v3.188C659.296,137.27,659.118,137.698,658.759,138.069z M655.606,133.598c0-0.791-0.27-1.436-0.811-1.936
				c-0.539-0.498-1.145-0.748-1.814-0.748h-0.348c-0.746,0-1.391,0.242-1.932,0.73c-0.541,0.482-0.811,1.098-0.811,1.838v1.727
				h5.715V133.598z"/>
		</g>
		<path fill="#EE3124" d="M197.51,94.657h-0.99c-1.539,0-2.971-0.25-4.289-0.768c-1.321-0.506-2.474-1.243-3.465-2.196
			c-0.992-0.952-1.761-2.067-2.313-3.349c-0.548-1.285-0.822-2.695-0.822-4.23V41.953c0-3.073,1.045-5.583,3.136-7.523
			c2.087-1.939,4.672-2.911,7.753-2.911h0.99c2.858,0,5.242,0.896,7.152,2.688c1.909,1.804,3.119,4.053,3.629,6.774
			c0.361,1.388,0.953,2.491,1.759,3.292c0.809,0.809,1.943,1.217,3.408,1.217c1.764,0,3.096-0.541,4.019-1.603
			c0.911-1.059,1.37-2.438,1.37-4.121v-0.333c0-2.639-0.599-5.1-1.811-7.372c-1.212-2.28-2.828-4.223-4.845-5.844
			c-2.015-1.61-4.31-2.881-6.873-3.803c-2.568-0.915-5.167-1.376-7.81-1.376h-0.99c-2.93,0-5.72,0.533-8.36,1.595
			c-2.643,1.059-4.918,2.552-6.827,4.453c-1.915,1.905-3.442,4.128-4.58,6.653c-1.138,2.529-1.705,5.3-1.705,8.305v41.976
			c0,3.005,0.567,5.792,1.705,8.354c1.138,2.566,2.665,4.79,4.58,6.661c1.909,1.868,4.185,3.334,6.827,4.396
			c2.64,1.059,5.43,1.595,8.36,1.595h0.99c2.643,0,5.242-0.442,7.81-1.327c2.563-0.881,4.858-2.128,6.873-3.747
			c2.017-1.618,3.633-3.553,4.845-5.787c1.211-2.238,1.811-4.714,1.811-7.432v-0.325c0-1.686-0.459-3.062-1.37-4.128
			c-0.923-1.063-2.255-1.595-4.019-1.595c-1.465,0-2.599,0.408-3.408,1.213c-0.807,0.801-1.398,1.905-1.759,3.3
			c-0.51,2.71-1.72,4.967-3.629,6.763C202.752,93.761,200.369,94.657,197.51,94.657"/>
		<polygon points="254.719,103.791 254.719,103.791 254.719,53.025 223.25,53.025 223.25,67.511 238.027,67.511 238.027,103.791 		
			"/>
		<path fill="#EE3124" d="M270.586,55.426v44.346c0,1.792,0.571,3.107,1.705,3.962c1.142,0.854,2.336,1.285,3.589,1.285
			c1.321,0,2.529-0.431,3.635-1.282c1.105-0.854,1.656-2.17,1.656-3.961V68.49c0-2.154,0.764-3.996,2.306-5.515
			c1.542-1.523,3.368-2.283,5.489-2.283h0.994c2.121,0,3.956,0.76,5.489,2.283c1.539,1.52,2.306,3.361,2.306,5.515v31.082
			c0,1.856,0.552,3.232,1.656,4.121c1.102,0.896,2.317,1.338,3.644,1.338c1.244,0,2.442-0.442,3.58-1.338
			c1.138-0.889,1.705-2.265,1.705-4.121V68.49c0-2.154,0.771-3.996,2.31-5.515c1.539-1.523,3.368-2.283,5.493-2.283h0.99
			c2.121,0,3.954,0.76,5.485,2.283c1.542,1.52,2.312,3.361,2.312,5.515v31.305c0,1.78,0.55,3.104,1.656,3.954
			c1.104,0.854,2.281,1.281,3.529,1.281c1.323,0,2.555-0.427,3.689-1.281c1.142-0.851,1.712-2.174,1.712-3.958v-31.66
			c0-5.572-1.502-9.976-4.51-13.212c-3.011-3.232-7.632-4.85-13.866-4.85h-0.987c-2.563,0-4.971,0.487-7.207,1.452
			c-2.232,0.971-4.202,2.306-5.888,4.015c-1.686-1.709-3.572-3.043-5.663-4.015c-2.09-0.964-4.563-1.452-7.428-1.452h-0.986
			c-1.469,0-2.93,0.265-4.398,0.786c-1.472,0.521-2.606,1.229-3.412,2.121c-0.66-1.19-1.397-1.969-2.209-2.347
			c-0.803-0.371-1.835-0.56-3.081-0.56c-1.329,0-2.542,0.45-3.642,1.342C271.137,52.303,270.586,53.642,270.586,55.426"/>
		<path fill="#EE3124" d="M113.85,94.657c-2.491,0-4.412-0.582-5.765-1.754c-1.357-1.172-2.034-2.669-2.034-4.502
			c0-1.682,0.495-2.963,1.483-3.84c0.985-0.881,2.27-1.577,3.843-2.087c1.573-0.514,3.349-0.915,5.326-1.21
			c1.977-0.291,3.917-0.695,5.824-1.209v6.918c0,2.128-0.75,3.939-2.253,5.44c-1.499,1.497-3.31,2.245-5.438,2.245H113.85z
			 M107.225,104.097c2.161,0.616,4.379,0.934,6.651,0.934h0.991c4.177,0,7.874-1.323,11.099-3.962
			c0.809,0.949,1.924,1.853,3.353,2.692c1.431,0.843,3.062,1.27,4.896,1.27c1.61,0,2.843-0.537,3.686-1.595
			c0.843-1.062,1.262-2.219,1.262-3.462c0-1.18-0.344-2.257-1.043-3.251c-0.696-0.99-1.781-1.667-3.244-2.034
			c-0.809-0.223-1.304-0.571-1.489-1.047c-0.178-0.477-0.276-1.119-0.276-1.924V67.402c0-2.563-0.514-4.873-1.538-6.925
			c-1.028-2.061-2.374-3.799-4.024-5.225c-1.656-1.433-3.548-2.533-5.676-3.308c-2.128-0.764-4.298-1.153-6.493-1.153h-0.773
			c-1.463,0-3.002,0.167-4.62,0.503c-1.61,0.321-3.173,0.9-4.672,1.705c-1.501,0.805-2.918,1.894-4.238,3.255
			c-1.319,1.357-2.419,3.028-3.3,5.013c-0.291,0.661-0.438,1.433-0.438,2.313c0,1.463,0.563,2.695,1.705,3.682
			c1.134,0.99,2.4,1.489,3.799,1.489c0.873,0,1.756-0.261,2.635-0.774c0.881-0.511,1.542-1.319,1.981-2.42
			c0.735-1.614,1.705-2.733,2.915-3.353c1.209-0.62,2.622-0.938,4.234-0.938h0.773c1.979,0,3.665,0.646,5.058,1.924
			c1.391,1.285,2.09,3.028,2.09,5.225c0,0.366-0.074,0.767-0.217,1.209c-0.147,0.438-0.552,0.729-1.21,0.881
			c-1.973,0.438-4.396,0.881-7.247,1.319c-2.856,0.438-5.618,1.225-8.29,2.366c-2.669,1.13-4.963,2.763-6.861,4.888
			c-1.909,2.128-2.858,5.133-2.858,9.016v0.548c0,2.862,0.518,5.323,1.542,7.368c1.022,2.049,2.381,3.757,4.067,5.115
			C103.14,102.482,105.061,103.469,107.225,104.097"/>
		<path fill="#EE3124" d="M245.454,23.248c-5.748,0-10.405,4.658-10.405,10.403c0,5.75,4.657,10.407,10.405,10.407
			c5.746,0,10.409-4.657,10.409-10.407C255.862,27.906,251.2,23.248,245.454,23.248"/>
		<path fill="#EE3124" d="M366.027,94.657c-2.495,0-4.416-0.582-5.765-1.754c-1.357-1.172-2.034-2.669-2.034-4.502
			c0-1.682,0.491-2.963,1.482-3.84c0.99-0.881,2.268-1.577,3.846-2.087c1.571-0.514,3.35-0.915,5.323-1.21
			c1.981-0.291,3.92-0.695,5.827-1.209v6.918c0,2.128-0.752,3.939-2.257,5.44c-1.501,1.497-3.312,2.245-5.436,2.245H366.027z
			 M359.398,104.097c2.164,0.616,4.379,0.934,6.651,0.934h0.99c4.177,0,7.881-1.323,11.104-3.962c0.81,0.949,1.927,1.853,3.35,2.692
			c1.434,0.843,3.061,1.27,4.898,1.27c1.609,0,2.838-0.537,3.682-1.595c0.843-1.062,1.266-2.219,1.266-3.462
			c0-1.18-0.348-2.257-1.043-3.251c-0.699-0.99-1.782-1.667-3.247-2.034c-0.808-0.223-1.301-0.571-1.483-1.047
			c-0.184-0.477-0.274-1.119-0.274-1.924V67.402c0-2.563-0.522-4.873-1.546-6.925c-1.029-2.061-2.369-3.799-4.026-5.225
			c-1.647-1.433-3.544-2.533-5.667-3.308c-2.135-0.764-4.294-1.153-6.501-1.153h-0.768c-1.463,0-3.009,0.167-4.622,0.503
			c-1.612,0.321-3.166,0.9-4.674,1.705c-1.5,0.805-2.914,1.894-4.23,3.255c-1.321,1.357-2.427,3.028-3.304,5.013
			c-0.291,0.661-0.442,1.433-0.442,2.313c0,1.463,0.575,2.695,1.708,3.682c1.132,0.99,2.402,1.489,3.792,1.489
			c0.882,0,1.761-0.261,2.642-0.774c0.879-0.511,1.539-1.319,1.983-2.42c0.735-1.614,1.703-2.733,2.913-3.353
			c1.206-0.62,2.624-0.938,4.234-0.938h0.768c1.984,0,3.67,0.646,5.066,1.924c1.391,1.285,2.09,3.028,2.09,5.225
			c0,0.366-0.074,0.767-0.221,1.209c-0.146,0.438-0.553,0.729-1.205,0.881c-1.98,0.438-4.396,0.881-7.25,1.319
			c-2.856,0.438-5.617,1.225-8.293,2.366c-2.669,1.13-4.958,2.763-6.857,4.888c-1.909,2.128-2.853,5.133-2.853,9.016v0.548
			c0,2.862,0.509,5.323,1.533,7.368c1.028,2.049,2.379,3.757,4.071,5.115C355.317,102.482,357.239,103.469,359.398,104.097"/>
		<path fill="#EE3124" d="M442.687,96.721c-0.699-0.99-1.784-1.667-3.248-2.034c-0.807-0.223-1.3-0.571-1.484-1.047
			c-0.182-0.477-0.275-1.119-0.275-1.924V67.402c0-0.004,0-0.011,0-0.019V5.277c0-1.758-0.555-3.077-1.654-3.961
			C434.918,0.442,433.708,0,432.386,0c-1.324,0-2.533,0.442-3.637,1.315c-1.101,0.884-1.66,2.2-1.66,3.961v48.384
			c-1.172-1.032-2.544-1.766-4.12-2.208c-1.584-0.438-2.81-0.662-3.687-0.662h-0.774c-2.487,0-4.857,0.477-7.092,1.433
			c-0.352,0.147-0.647,0.359-0.983,0.525c-0.185,0.087-0.371,0.151-0.555,0.25c-0.137,0.072-0.266,0.189-0.4,0.261
			c-1.422,0.798-2.752,1.697-3.895,2.813c-1.652,1.61-2.952,3.523-3.904,5.72c-0.953,2.2-1.432,4.585-1.432,7.152v18.039
			c0,0.915,0.086,1.807,0.214,2.676c0.222,1.516,0.612,2.975,1.218,4.366c0.952,2.2,2.252,4.128,3.904,5.776
			s3.592,2.934,5.833,3.852c1.521,0.624,3.104,1.017,4.741,1.217c0.71,0.068,1.421,0.147,2.146,0.147
			c0.047,0,0.091,0.011,0.137,0.011h0.99c0.047,0,0.086-0.011,0.136-0.011c0.476,0,0.927-0.076,1.384-0.113
			c2.359-0.193,4.564-0.802,6.6-1.886c1.033-0.545,2.036-1.172,2.984-1.951c0.808,0.949,1.919,1.853,3.35,2.692
			c0.381,0.227,0.773,0.416,1.178,0.582c1.131,0.454,2.369,0.688,3.72,0.688c1.61,0,2.839-0.537,3.687-1.595
			c0.842-1.062,1.262-2.219,1.262-3.462C443.729,98.793,443.378,97.716,442.687,96.721z M418.522,94.657
			c-2.124,0-3.937-0.749-5.443-2.245c-1.496-1.501-2.249-3.315-2.249-5.44V68.959c0-0.65,0.095-1.27,0.24-1.856
			c0.315-1.342,0.976-2.541,2.009-3.58c1.507-1.505,3.319-2.257,5.443-2.257h1.422c1.98,0,3.667,0.646,5.059,1.924
			c1.395,1.285,2.094,3.028,2.094,5.225c0,0.057-0.032,0.132-0.036,0.188c0.004,0.121,0.028,0.231,0.028,0.355v18.013
			c0,1.977-0.748,3.757-2.245,5.33c-1.505,1.573-3.312,2.355-5.44,2.355H418.522z"/>
		<path fill="#EE3124" d="M462.172,73.598v-4.956c0-2.125,0.765-3.886,2.296-5.285c1.533-1.391,3.359-2.09,5.475-2.09h0.982
			c1.905,0,3.619,0.718,5.148,2.147c1.533,1.433,2.299,3.285,2.299,5.561v4.624H462.172z M462.915,103.707
			c2.239,0.881,4.605,1.323,7.101,1.323h0.877c0.059,0,0.106-0.022,0.169-0.022h232.439c1.512,0,2.744-0.48,3.711-1.452
			c0.963-0.976,1.449-2.208,1.449-3.716c0-1.437-0.486-2.657-1.449-3.663c-0.967-1.009-2.164-1.512-3.598-1.512H470.905
			l-0.013-0.008h-0.877c-2.122,0-3.944-0.688-5.447-2.075c-1.503-1.391-2.253-3.149-2.253-5.266v-3.95h21.52
			c1.465,0,2.714-0.533,3.736-1.595c1.026-1.063,1.533-2.291,1.533-3.689v-9.129c0-2.643-0.477-5.077-1.43-7.326
			c-0.952-2.23-2.252-4.139-3.9-5.719c-1.645-1.573-3.572-2.82-5.77-3.743c-2.201-0.911-4.583-1.373-7.146-1.373h-0.883
			c-2.49,0-4.834,0.461-7.035,1.373c-2.199,0.922-4.119,2.185-5.766,3.799c-1.65,1.614-2.976,3.504-3.963,5.663
			c-0.988,2.17-1.479,4.495-1.479,6.99v18.701c0,2.495,0.469,4.824,1.425,6.986c0.965,2.166,2.266,4.049,3.92,5.671
			C458.733,101.583,460.677,102.826,462.915,103.707"/>
		<g>
			<g>
				<path fill="#EE3124" d="M86.651,96.376c-1.028-0.953-2.266-1.437-3.735-1.437c-1.24,0-2.285-0.454-3.123-1.369
					c-0.845-0.918-1.263-2.003-1.263-3.243V33.009l-0.019-0.019c-0.127-5.833-4.801-10.533-10.622-10.711l-0.017-0.017H5.046
					c-1.429,0-2.627,0.506-3.597,1.508C0.482,24.775,0,25.997,0,27.437c0,1.504,0.482,2.744,1.45,3.712
					c0.97,0.968,2.202,1.456,3.707,1.456c0,0,57.936,0,59.539,0c1.603,0,3.247,1.591,3.247,3.225c0,1.633,0,54.499,0,54.499
					c0,4.835,1.285,8.543,3.852,11.11c2.57,2.563,6.273,3.841,11.114,3.841c1.542,0,2.805-0.469,3.795-1.425
					c0.987-0.952,1.484-2.2,1.484-3.742C88.188,98.573,87.675,97.325,86.651,96.376z"/>
			</g>
		</g>
	</g>
</g>
</svg>
